<svg width="61" height="13" viewBox="0 0 61 13" fill="none" xmlns="http://www.w3.org/2000/svg">
<path fill-rule="evenodd" clip-rule="evenodd" d="M14.6754 3.54114H13.4564V6.09009H10.7229V3.54114H9.49469V9.90419H10.7229V7.21793H13.4564V9.90419H14.6754V3.54114ZM20.0089 8.01561C20.1843 6.14514 19.021 5.0632 17.6171 5.0632C16.2784 5.0632 15.1792 6.1818 15.1792 7.54801C15.176 8.19818 15.4309 8.82305 15.888 9.28546C16.3451 9.74787 16.9669 10.01 17.6171 10.0144C18.7991 10.0144 19.6395 9.36343 19.9165 8.40067H18.6144C18.4113 8.77664 18.0142 8.95081 17.6079 8.95081C17.0352 8.95081 16.5736 8.59324 16.4166 8.01561H20.0089ZM16.4351 7.02536C16.6105 6.47523 17.0538 6.12682 17.6079 6.12682C18.1896 6.12682 18.6514 6.47523 18.7991 7.02536H16.4351ZM27.7718 7.14455C27.7718 5.90676 27.0331 5.0632 25.7587 5.0632C25.4822 5.05834 25.2082 5.11602 24.9572 5.23192C24.7061 5.34782 24.4845 5.51895 24.3089 5.73252C24.1396 5.51872 23.9231 5.34703 23.6764 5.23091C23.4297 5.11478 23.1594 5.05738 22.8868 5.0632C22.6516 5.05977 22.4187 5.11001 22.2059 5.2101C21.9931 5.31019 21.8059 5.4575 21.6586 5.64082V5.18267H20.4857V9.90419H21.7137V7.14455C21.7137 6.61274 22.0923 6.20929 22.6279 6.20929C23.4313 6.20929 23.5144 6.86945 23.5144 7.14455V9.90419H24.7426V7.14455C24.7426 6.61274 25.1212 6.20929 25.6661 6.20929C26.4602 6.20929 26.5526 6.86945 26.5526 7.14455V9.90419H27.7716V7.14455H27.7718ZM29.7151 3.54114H28.4961V4.6689H29.7151V3.54114ZM29.7151 5.18239H28.4961V9.90419H29.7151V5.18239ZM34.5064 8.419C34.5064 7.3921 33.6568 7.13539 32.4748 6.94283C31.8838 6.85112 31.5329 6.76858 31.5329 6.52104C31.5329 6.34687 31.7638 6.14514 32.3271 6.14514C32.7796 6.14514 33.0474 6.31931 33.1212 6.53937H34.3864C34.2294 5.64999 33.4167 5.0632 32.3271 5.0632C30.9511 5.0632 30.2955 5.83339 30.2955 6.57609C30.2955 7.63048 31.4313 7.8597 32.2809 7.98812C33.112 8.11647 33.2782 8.2265 33.2782 8.49237C33.2782 8.76748 32.9088 8.91416 32.4192 8.91416C32.059 8.91416 31.5696 8.76748 31.4034 8.36402H30.1662C30.3139 9.38175 31.2097 10.0144 32.4194 10.0144C33.6384 10.0144 34.5064 9.35427 34.5064 8.419ZM39.8595 7.52961C39.8595 6.13598 38.8436 5.07236 37.5969 5.07236C37.327 5.07094 37.0596 5.12378 36.8106 5.22775C36.5615 5.33171 36.3359 5.48467 36.1471 5.67755V5.18239H34.9743V12.0041H36.2026V9.44604C36.5766 9.80736 37.0771 10.0081 37.5971 10.0053C38.8436 10.0053 39.8595 8.93248 39.8595 7.52961ZM38.6404 7.52961C38.6404 8.29981 38.0956 8.8775 37.4215 8.8775C36.7473 8.8775 36.2026 8.27203 36.2026 7.52961C36.2026 6.79614 36.7475 6.20012 37.4216 6.20012C38.0957 6.20012 38.6404 6.76873 38.6404 7.52961ZM44.5749 7.14455C44.5749 5.8976 43.7992 5.0632 42.6356 5.0632C42.2419 5.06236 41.8588 5.1913 41.5457 5.43007V3.0827H40.3175V9.90419H41.5457V7.14455C41.5457 6.61274 41.9244 6.24601 42.4692 6.24601C43.2634 6.24601 43.3557 6.86945 43.3557 7.14455V9.90419H44.5747V7.14455H44.5749ZM49.8261 8.01561C50.0016 6.14514 48.8383 5.0632 47.4344 5.0632C46.0957 5.0632 44.9965 6.1818 44.9965 7.54801C44.9933 8.19819 45.2482 8.82307 45.7053 9.28548C46.1624 9.74789 46.7843 10.0101 47.4345 10.0144C48.6165 10.0144 49.4568 9.36343 49.7339 8.40067H48.4315C48.2283 8.77664 47.8313 8.95081 47.4249 8.95081C46.8523 8.95081 46.3907 8.59324 46.2337 8.01561H49.8259H49.8261ZM46.2524 7.02536C46.4278 6.47523 46.8711 6.12682 47.4252 6.12682C48.0069 6.12682 48.4687 6.47523 48.6164 7.02536H46.2522H46.2524ZM54.5509 7.14455C54.5509 5.8976 53.8121 5.0632 52.6947 5.0632C52.4599 5.06175 52.2277 5.11288 52.0152 5.21283C51.8027 5.31278 51.6152 5.45901 51.4665 5.64082V5.18267H50.3028V9.90419H51.522V7.14455C51.522 6.61274 51.9006 6.20929 52.4455 6.20929C53.2489 6.20929 53.332 6.86945 53.332 7.14455V7.38293H54.5509L54.5509 7.14455ZM59.5529 8.01561C59.7284 6.14514 58.5651 5.0632 57.1612 5.0632C55.8225 5.0632 54.7233 6.1818 54.7233 7.54801C54.7201 8.19818 54.975 8.82305 55.4321 9.28546C55.8892 9.74787 56.511 10.01 57.1612 10.0144C58.3432 10.0144 59.1836 9.36343 59.4606 8.40067H58.158C57.9549 8.77664 57.5578 8.95081 57.1515 8.95081C56.5788 8.95081 56.1172 8.59324 55.9602 8.01561H59.5524H59.5529ZM55.9789 7.02536C56.1544 6.47523 56.5977 6.12682 57.1517 6.12682C57.7335 6.12682 58.1952 6.47523 58.343 7.02536H55.9789Z" fill="white"/>
<path fill-rule="evenodd" clip-rule="evenodd" d="M60.2483 3.56866C60.0996 3.56866 59.9543 3.61275 59.8307 3.69534C59.7071 3.77793 59.6107 3.89533 59.5539 4.03267C59.497 4.17002 59.4821 4.32115 59.5111 4.46696C59.5401 4.61276 59.6117 4.74669 59.7168 4.85181C59.8219 4.95693 59.9558 5.02852 60.1017 5.05752C60.2475 5.08653 60.3986 5.07164 60.5359 5.01475C60.6733 4.95786 60.7907 4.86152 60.8733 4.73791C60.9559 4.6143 60.9999 4.46898 60.9999 4.32032C60.9999 4.12097 60.9208 3.92978 60.7798 3.78882C60.6388 3.64786 60.4476 3.56866 60.2483 3.56866ZM60.2483 4.95027C60.1237 4.95027 60.0019 4.91332 59.8983 4.8441C59.7947 4.77488 59.714 4.6765 59.6663 4.56139C59.6186 4.44628 59.6061 4.31962 59.6304 4.19742C59.6547 4.07522 59.7147 3.96297 59.8028 3.87487C59.8909 3.78677 60.0032 3.72677 60.1254 3.70246C60.2476 3.67816 60.3743 3.69063 60.4894 3.73831C60.6045 3.78599 60.7029 3.86674 60.7721 3.97033C60.8413 4.07393 60.8782 4.19572 60.8782 4.32032C60.878 4.48732 60.8116 4.64742 60.6935 4.76551C60.5754 4.8836 60.4153 4.95004 60.2483 4.95027ZM60.4559 4.41187C60.4309 4.38584 60.4023 4.36362 60.3708 4.34594C60.4297 4.34094 60.4848 4.31518 60.5263 4.27328C60.5617 4.23308 60.5803 4.18088 60.5783 4.12739C60.5791 4.08372 60.5672 4.04075 60.5439 4.00376C60.5229 3.96903 60.4907 3.94247 60.4526 3.92845C60.3932 3.91142 60.3314 3.90417 60.2697 3.90698H59.936V4.69242H60.0945V4.36499H60.1266C60.1535 4.36379 60.1805 4.36676 60.2066 4.37379C60.2248 4.38072 60.2411 4.39194 60.2542 4.40651C60.2844 4.44319 60.3124 4.48173 60.3378 4.5219L60.4524 4.69292H60.642L60.546 4.53965C60.5198 4.4946 60.4896 4.45194 60.4559 4.41216V4.41187ZM60.2118 4.2395H60.0945V4.04056H60.2183C60.2825 4.04056 60.3211 4.04142 60.3341 4.04314C60.357 4.046 60.3782 4.05694 60.3938 4.07399C60.4084 4.09198 60.4159 4.11479 60.4148 4.13799C60.4155 4.15876 60.41 4.17927 60.3988 4.19683C60.388 4.21251 60.3724 4.2242 60.3543 4.23012C60.3072 4.23891 60.2593 4.24215 60.2115 4.23978L60.2118 4.2395Z" fill="white"/>
<path fill-rule="evenodd" clip-rule="evenodd" d="M3.48076 9.98068C2.80554 9.98094 2.13688 9.84823 1.51294 9.59011L5.31601 0.000183105C6.44406 0.428868 7.38612 1.23947 7.97827 2.29096C8.57042 3.34245 8.77519 4.56826 8.55695 5.75512C8.3387 6.94198 7.71126 8.01477 6.78379 8.78682C5.85632 9.55887 4.68752 9.98133 3.48076 9.98068Z" fill="white"/>
<path fill-rule="evenodd" clip-rule="evenodd" d="M4.69377 1.5694C5.12604 1.73108 5.52172 1.97735 5.85766 2.2938C6.1936 2.61024 6.46305 2.99051 6.65026 3.41235C6.83746 3.83419 6.93866 4.28913 6.94792 4.75055C6.95718 5.21197 6.87433 5.67061 6.7042 6.09962C6.53407 6.52863 6.2801 6.91941 5.95712 7.24908C5.63415 7.57875 5.24868 7.8407 4.82325 8.0196C4.39782 8.1985 3.94098 8.29076 3.47947 8.29097C3.01795 8.29119 2.56103 8.19936 2.13544 8.02085L4.69377 1.5694Z" fill="#052436"/>
<path fill-rule="evenodd" clip-rule="evenodd" d="M2.13541 8.02087C1.29543 7.67076 0.626556 7.00475 0.272862 6.16627C-0.0808312 5.32779 -0.0910497 4.38394 0.244408 3.538C0.579866 2.69207 1.23416 2.01173 2.06637 1.64352C2.89857 1.27531 3.8421 1.2487 4.69374 1.56941L2.13541 8.02087Z" fill="white"/>
</svg>
