<svg width="201" height="36" viewBox="0 0 201 36" fill="none" xmlns="http://www.w3.org/2000/svg">
<path fill-rule="evenodd" clip-rule="evenodd" d="M53.6417 5.48941C53.6417 5.40592 54.0801 4.13271 54.6227 2.67165L55.6037 0H65.7268C71.6963 0 76.4134 0.104361 77.2274 0.229595C77.9579 0.354829 79.1477 0.709657 79.8364 1.02274C80.5252 1.33583 81.4436 1.96199 81.9028 2.42118C82.362 2.88037 83.009 3.86137 84.0109 5.9486L84.1153 24.6293H79.8364C75.6829 24.6293 75.5576 24.6293 75.5576 24.2118C75.5576 23.9822 75.4741 23.7944 75.3907 23.7944C75.3072 23.8153 74.8062 24.024 74.3053 24.2745C73.366 24.7336 73.2408 24.7336 56.2508 24.7336L55.2072 24.191C54.6227 23.8779 53.9548 23.4187 53.7044 23.1474C53.4539 22.876 53.0364 22.229 52.7651 21.7072C52.3268 20.8723 52.2642 20.4548 52.2016 17.4284C52.1389 14.8193 52.2016 13.8383 52.452 12.8991C52.7234 11.9598 53.0364 11.4589 53.8505 10.6449C54.6019 9.89346 55.1863 9.51776 55.9794 9.28816C56.8978 9.01682 58.4215 8.97508 65.3302 9.03769C72.6981 9.07944 73.6374 9.12118 74.2427 9.45514C74.6184 9.64299 74.9941 9.80997 75.0776 9.80997C75.1611 9.83084 75.1611 9.28816 75.0776 8.62025C74.9732 7.95234 74.7645 7.20093 74.5975 6.95047C74.4305 6.67913 73.9922 6.30343 73.6165 6.11558C73.0112 5.78162 72.0302 5.73988 63.2847 5.69813C57.9832 5.65639 53.6417 5.5729 53.6417 5.48941ZM4.67539 12.2312C2.29595 6.03209 0.27134 0.751402 0.18785 0.480062L0 0.0208723L10.1022 0.125234L12.8156 8.95421C14.2975 13.7966 15.5707 17.7623 15.6333 17.7623C15.696 17.7623 17.1361 13.8801 18.8268 9.16293C20.5174 4.42492 21.9785 0.417446 22.062 0.292212C22.1664 0.0834891 23.1891 0.0417446 30.3065 0.125234L33.4583 8.93333C35.1907 13.7966 36.6517 17.7623 36.7143 17.7623C36.7769 17.7623 38.071 13.7966 39.5947 8.95421C41.1184 4.09097 42.3916 0.104361 42.4125 0.0834891C42.4333 0.0417446 44.6875 0.0417446 52.3268 0.125234L48.3819 10.457C46.2112 16.1343 44.1031 21.6654 42.976 24.6502L30.7866 24.5458L28.5741 18.2632C27.3636 14.7984 26.3408 11.9181 26.2782 11.8346C26.2156 11.772 25.9234 12.3773 25.5894 13.2122C25.2763 14.047 24.2536 16.9483 21.5819 24.5458L9.37165 24.6502L9.1838 24.0866C9.07944 23.7526 7.05483 18.4302 4.67539 12.2312ZM90.4813 0.500935C89.8969 0.772274 89.1246 1.33583 88.7489 1.75327C88.3732 2.17072 87.9349 2.88037 87.747 3.29782C87.5174 3.90312 87.434 4.92586 87.4548 7.74361C87.4548 10.8118 87.5174 11.5215 87.8305 12.2312C88.0392 12.6903 88.5402 13.3791 88.9159 13.7757C89.3125 14.1514 90.0221 14.6732 90.4813 14.9237C91.2745 15.3411 91.5875 15.362 100.646 15.4037L109.997 15.4664C110.644 16.343 110.832 16.9065 110.832 17.2822C110.832 17.6997 110.623 18.2006 110.31 18.5346L109.809 19.119L88.8324 19.3277C87.7679 23.21 87.4548 24.4414 87.4548 24.5875C87.4548 24.7963 90.4396 24.838 101.898 24.7963L116.363 24.7545C117.803 23.8988 118.534 23.2935 118.909 22.8551C119.285 22.396 119.744 21.5193 119.932 20.8931C120.203 19.9748 120.245 19.0146 120.183 16.3012C120.099 13.066 120.057 12.7947 119.556 11.8137C119.243 11.2293 118.784 10.5614 118.513 10.3109C118.241 10.0604 117.594 9.64299 117.093 9.37165C116.154 8.89174 116.133 8.89159 107.187 8.82903L107.179 8.82897C102.232 8.8081 97.9745 8.74548 97.724 8.68287C97.4527 8.62025 97.1396 8.30717 96.9726 7.88972C96.8056 7.51402 96.7221 7.0757 96.7639 6.90872C96.8056 6.74174 97.0352 6.40779 97.2857 6.17819C97.7031 5.78162 98.0788 5.76075 107.951 5.65639L118.2 5.55203L118.401 4.78874L118.401 4.78821L118.401 4.78731C119.148 1.95833 119.434 0.87284 119.473 0.584424L119.598 0.0208723H91.5249L90.4813 0.500935ZM124.19 1.79502C124.587 1.3567 125.38 0.772274 125.964 0.500935L127.008 0.0208723H141.034C148.757 0.0208723 155.081 0.0834891 155.06 0.166978C155.06 0.250467 154.747 1.5028 153.683 5.55203L143.455 5.65639C134.772 5.73988 133.165 5.80249 132.852 6.07383C132.643 6.24081 132.393 6.59564 132.288 6.84611C132.184 7.15919 132.205 7.51402 132.393 7.88972C132.56 8.2028 132.831 8.53676 133.019 8.62025C133.207 8.70374 137.277 8.78723 142.078 8.78723C146.878 8.78723 151.115 8.87072 151.533 8.97508C151.929 9.07944 152.722 9.47601 153.286 9.87259C153.975 10.3318 154.517 10.9371 154.956 11.7093C155.582 12.8156 155.603 12.9199 155.665 16.0925C155.728 18.2006 155.645 19.7452 155.478 20.5801C155.311 21.3523 154.977 22.1246 154.559 22.6673C154.204 23.1265 153.453 23.7735 151.867 24.7545L137.402 24.7963C123.731 24.838 122.938 24.838 122.938 24.4832C122.959 24.2745 123.251 23.043 124.294 19.3277L145.292 19.119L145.835 18.4928C146.273 17.9502 146.336 17.7206 146.231 17.0318C146.169 16.5726 145.939 16.0299 145.73 15.8212C145.396 15.4872 144.603 15.4455 136.087 15.4037C127.07 15.362 126.757 15.3411 125.964 14.9028C125.505 14.6732 124.795 14.1514 124.399 13.7548C124.023 13.3791 123.522 12.6903 123.313 12.2312C123 11.5215 122.938 10.8118 122.938 7.681C122.938 5.07196 123.021 3.77788 123.209 3.29782C123.355 2.92212 123.814 2.25421 124.19 1.79502ZM170.213 0.313084C169.754 0.480062 169.065 0.876636 168.669 1.16885L167.98 1.71153L167.813 0.417446H158.629V35.4829H167.813L167.792 22.8551C168.523 23.5439 169.17 23.9822 169.692 24.2536L170.631 24.7336H186.911C188.518 23.8779 189.332 23.2726 189.75 22.8343C190.167 22.396 190.731 21.6028 191.002 21.081C191.482 20.1626 191.503 20.0583 191.545 12.8364C191.607 6.95047 191.545 5.3433 191.315 4.48754C191.148 3.92399 190.647 2.98474 190.188 2.40031C189.708 1.79502 188.894 1.10623 188.247 0.73053L187.12 0.104361C172.447 0.0208723 170.902 0.0626168 170.213 0.313084ZM193.924 2.40031C194.07 2.1081 194.383 1.79502 194.613 1.69065C194.843 1.58629 196.116 1.48193 197.452 1.48193C199.539 1.46106 199.915 1.5028 200.416 1.8785C200.979 2.29595 201 2.35857 201 4.38318C201 6.19907 200.937 6.53302 200.583 6.88785C200.207 7.26355 199.873 7.3053 194.53 7.3053L194.091 6.74174C193.757 6.28255 193.674 5.84424 193.674 4.55016C193.674 3.65265 193.799 2.69252 193.924 2.40031ZM9.39252 31.7259V35.4829H10.8536C10.8536 31.705 10.9371 30.6405 11.0623 30.5779C11.1667 30.5361 12.0433 31.6006 12.9826 32.9991C14.4854 35.1698 14.7776 35.5037 15.2785 35.5037C15.7794 35.4829 16.0925 35.1489 17.5745 32.9991C18.5137 31.6215 19.3695 30.5361 19.453 30.5988C19.5364 30.6405 19.6199 31.7676 19.6199 33.0826V35.4829H21.081V27.9688H19.0981C16.176 32.185 15.2785 33.3956 15.2368 33.3956C15.1741 33.3956 14.2766 32.1642 13.2539 30.6614L11.3754 27.948L9.39252 27.9688V31.7259ZM29.4925 34.6062C29.3047 34.1888 29.2212 33.1243 29.2212 30.9953V27.9688H30.891V30.9953C30.891 33.5 30.9327 34.0427 31.2041 34.1262C31.371 34.1888 32.4564 34.2305 33.6044 34.2305C34.7523 34.2305 35.8794 34.147 36.109 34.0218C36.4847 33.834 36.5265 33.6044 36.5265 27.9688H37.9875V34.648L37.4031 35.0863C36.8813 35.462 36.5265 35.5037 33.6461 35.5037C31.8928 35.4829 30.3065 35.4203 30.1187 35.3368C29.9308 35.2533 29.6595 34.9193 29.4925 34.6062ZM46.7539 31.7259V35.4829H53.8505V34.2305H48.4237V27.9688H46.7539V31.7259ZM60.5296 29.2212V28.595V27.9688H69.296V29.2212H65.7477V35.4829H64.0779V29.2212H60.5296ZM78.0623 31.7259V35.4829H79.7321V27.9688H78.0623V31.7259ZM89.1246 35.4829V31.7259V27.9688H92.819C96.2421 27.9688 96.5551 27.9897 96.9935 28.3863C97.2439 28.6159 97.5153 29.1168 97.5988 29.4925C97.6614 29.8682 97.6405 30.4527 97.5153 30.7866C97.3483 31.2667 97.3692 31.5171 97.5988 31.8302C97.7657 32.0598 97.891 32.7277 97.8701 33.2913C97.8701 33.8757 97.7449 34.481 97.6196 34.6688C97.4735 34.8567 97.1396 35.1072 96.8891 35.2533C96.5969 35.3994 95.1358 35.4829 89.1246 35.4829ZM106.449 31.7259V35.4829H113.963V34.2305L108.014 34.1262L107.91 32.352H113.754V30.891H107.91L108.014 29.3255L113.963 29.2212V27.9688H106.449V31.7259ZM123.501 31.872C124.607 30.0143 125.588 28.3863 125.693 28.2402C125.818 28.0941 126.256 27.9688 127.53 27.9688L129.429 31.2667C130.493 33.0617 131.474 34.7523 131.621 35.0237C131.735 35.218 131.802 35.3301 131.77 35.3948C131.727 35.4829 131.503 35.4829 130.974 35.4829C130.118 35.4829 129.993 35.4202 129.199 34.0218H123.981L123.606 34.7732C123.272 35.4411 123.167 35.5037 122.353 35.5037C121.873 35.4829 121.477 35.4411 121.477 35.3576C121.498 35.295 122.395 33.7296 123.501 31.872ZM139.009 31.7259V35.4829H140.679C140.658 30.8492 140.7 30.4109 140.93 30.6196C141.076 30.7449 141.89 31.8928 142.766 33.166C144.207 35.3159 144.374 35.4829 144.937 35.4411C145.501 35.3994 145.793 35.0445 147.337 32.8112L149.132 30.2439L149.237 35.4829H150.907V27.9688L148.715 28.0732C145.96 32.0181 145.083 33.2287 145 33.2913C144.916 33.3539 143.998 32.185 142.975 30.6822L141.097 27.9688H139.009V31.7259ZM194.947 2.42099C194.488 2.73408 194.446 2.88018 194.488 4.52909C194.509 6.05277 194.571 6.30324 194.926 6.49109C195.156 6.59545 196.325 6.69981 197.535 6.69981C199.581 6.69981 199.748 6.65807 200.04 6.21975C200.249 5.92754 200.353 5.25962 200.353 4.36212C200.353 3.21414 200.269 2.85931 199.936 2.52536C199.581 2.17053 199.247 2.10791 197.473 2.10791C195.991 2.10791 195.323 2.1914 194.947 2.42099ZM168.564 7.22162C168.251 7.3886 167.959 7.74342 167.897 8.01476C167.834 8.26523 167.813 10.4359 167.834 12.8571L167.897 17.2194C169.337 18.1796 169.441 18.2004 175.035 18.1796C179.627 18.1796 180.879 18.1169 181.464 17.8665C181.881 17.6995 182.34 17.2821 182.507 16.9272C182.758 16.4263 182.82 15.5079 182.758 12.2101L182.716 8.11912L181.359 6.90853C170.318 6.9294 169.045 6.99202 168.564 7.22162ZM61.0305 16.9272C61.0305 15.5497 61.0723 15.3827 61.6149 14.9235L62.1994 14.4226H74.0757L74.6392 14.9235C75.1819 15.3827 75.2237 15.5497 75.2237 16.9272C75.2237 18.3048 75.1819 18.4718 74.0757 19.4319H62.1785L61.5941 18.931C61.0723 18.4718 61.0305 18.3048 61.0305 16.9272ZM90.7735 30.0768V30.9116L95.8872 30.8073C96.0125 29.6802 95.929 29.5132 95.5324 29.4088C95.2819 29.3045 94.0922 29.2419 92.9234 29.2419H90.7735V30.0768ZM125.046 32.5188C125.025 32.4979 125.338 31.8926 125.755 31.1621C126.173 30.4525 126.611 29.868 126.736 29.868C126.862 29.868 127.258 30.4525 128.302 32.4771L126.716 32.5188C125.839 32.5606 125.088 32.5606 125.046 32.5188ZM90.7735 33.312V34.2512C94.6766 34.2512 95.595 34.1677 95.8455 34.0007C96.1168 33.8129 96.2212 33.5207 96.1586 33.1032L96.0959 32.4771L90.7944 32.3518L90.7735 33.312Z" fill="white"/>
<path fill-rule="evenodd" clip-rule="evenodd" d="M195.552 4.50829C195.552 5.4058 195.636 6.07371 195.761 6.07371C195.866 6.07371 195.991 5.76063 196.033 5.38493C196.074 4.8005 196.158 4.71701 196.7 4.6544C197.201 4.61265 197.494 4.75876 198.057 5.36406C198.454 5.7815 198.913 6.05284 199.059 5.99022C199.247 5.90673 199.184 5.71888 198.829 5.34318C198.391 4.86312 198.391 4.8005 198.725 4.46655C198.934 4.25782 199.101 3.94474 199.101 3.77776C199.101 3.61078 198.996 3.33944 198.85 3.19334C198.683 3.02636 198.015 2.94287 197.055 2.94287H195.552V4.50829ZM196.074 3.61073C195.991 3.75684 196.012 3.94469 196.095 4.04905C196.2 4.13254 196.742 4.17428 197.327 4.15341C198.099 4.11167 198.37 4.00731 198.37 3.77771C198.37 3.54812 198.078 3.44375 197.306 3.40201C196.575 3.36027 196.179 3.42288 196.074 3.61073Z" fill="white"/>
</svg>
