<svg width="61" height="13" viewBox="0 0 61 13" fill="none" xmlns="http://www.w3.org/2000/svg">
<path d="M15.3413 5.51025C14.0806 5.20525 14.0603 5.18492 14.0603 4.35126C14.0603 3.71077 14.223 3.51761 15.1583 3.51761C15.7988 3.51761 16.5104 3.60911 17.1103 3.74127L17.2628 2.58229C16.5409 2.41962 15.7683 2.33829 15.138 2.33829C13.2876 2.33829 12.6777 2.99911 12.6777 4.32076C12.6777 5.86608 12.9217 6.21174 14.6906 6.60823C16.0123 6.89289 16.0326 6.96406 16.0326 7.76721C16.0326 8.46871 15.8699 8.6822 14.8736 8.6822C14.1518 8.6822 13.491 8.55004 12.8098 8.34671L12.5658 9.43453C13.0538 9.66836 14.0196 9.87169 14.8533 9.87169C17.0188 9.87169 17.4254 9.16003 17.4254 7.77738C17.4051 6.30324 17.3034 5.98807 15.3413 5.51025ZM22.7832 5.94741C23.3423 5.70341 23.5965 5.36792 23.5965 4.75793V4.0056C23.5965 3.01945 23.0373 2.45012 21.6547 2.45012H18.7776V9.75985H21.8479C23.1797 9.75985 23.8405 9.1092 23.8405 8.08238V7.29956C23.8507 6.57773 23.4542 6.08974 22.7832 5.94741ZM20.1602 3.57861H21.492C22.0004 3.57861 22.2139 3.7616 22.2139 4.16827V4.81892C22.2139 5.24592 22.0207 5.50008 21.4819 5.50008H20.1602V3.57861ZM22.468 7.89938C22.468 8.43821 22.2037 8.61104 21.5835 8.61104H20.1602V6.6184H21.6954C22.2444 6.6184 22.468 6.8624 22.468 7.35039V7.89938ZM28.0494 5.77458V6.88273H28.7306V8.5297C28.3544 8.58054 27.9783 8.62121 27.6021 8.62121C26.6363 8.62121 26.3313 8.20438 26.3313 7.49272V4.72742C26.3313 3.98527 26.6465 3.58877 27.6123 3.58877C28.3239 3.58877 28.9949 3.63961 29.6659 3.78194L29.8184 2.57212C29.1576 2.39929 28.3138 2.32812 27.7241 2.32812C25.823 2.32812 24.9487 3.02961 24.9487 4.53426V7.65539C24.9487 9.1092 25.8026 9.86152 27.592 9.86152C28.3646 9.86152 29.2694 9.74969 30.0421 9.53619V5.77458H28.0494Z" fill="white"/>
<path d="M34.3934 6.99459C33.4377 6.75059 33.4377 6.73026 33.4377 6.05927C33.4377 5.50011 33.58 5.33744 34.373 5.33744C34.7695 5.33744 35.227 5.38828 35.6133 5.47977L35.6642 4.95112C35.2778 4.84945 34.7797 4.78845 34.3629 4.78845C33.1632 4.78845 32.8175 5.19511 32.8175 6.03893C32.8175 7.03525 32.9599 7.26908 34.1189 7.52325C35.1152 7.74691 35.1152 7.80791 35.1152 8.45857C35.1152 9.00756 34.9525 9.21089 34.1799 9.21089C33.7427 9.21089 33.275 9.13972 32.8277 8.99739L32.726 9.50572C33.1429 9.66838 33.702 9.75988 34.1595 9.75988C35.4913 9.75988 35.7353 9.28206 35.7353 8.43823C35.7455 7.50291 35.6743 7.31992 34.3934 6.99459ZM38.2058 7.56391L36.9452 4.86978H36.2843L37.8906 8.24507V9.69888H38.5108V8.24507L40.1171 4.86978H39.4664L38.2058 7.56391ZM42.2317 6.99459C41.2761 6.75059 41.2761 6.73026 41.2761 6.05927C41.2761 5.50011 41.4184 5.33744 42.2114 5.33744C42.6079 5.33744 43.0654 5.38828 43.4517 5.47977L43.5026 4.95112C43.1162 4.84945 42.6181 4.78845 42.2012 4.78845C41.0016 4.78845 40.6559 5.19511 40.6559 6.03893C40.6559 7.03525 40.7983 7.26908 41.9572 7.52325C42.9536 7.74691 42.9536 7.80791 42.9536 8.45857C42.9536 9.00756 42.7909 9.21089 42.0182 9.21089C41.5811 9.21089 41.1134 9.13972 40.6661 8.99739L40.5644 9.50572C40.9813 9.66838 41.5404 9.75988 41.9979 9.75988C43.3297 9.75988 43.5737 9.28206 43.5737 8.43823C43.5839 7.50291 43.5127 7.31992 42.2317 6.99459ZM44.1939 5.42894H45.6375V9.69888H46.2577V5.42894H47.7013V4.86978H44.1939V5.42894ZM49.0942 7.50292H51.158V6.94376H49.0942V5.42894H51.3105V4.86978H48.4638V9.69888H51.3105V9.13972H49.0942V7.50292ZM56.0582 4.86978L54.6654 8.6009L53.2726 4.86978H52.4796L52.3169 9.69888H52.9168L53.0083 5.78477L54.2384 9.07873H55.0822L56.3124 5.78477L56.4039 9.69888H57.0037L56.841 4.86978C56.8512 4.86978 56.0582 4.86978 56.0582 4.86978ZM59.6572 6.99459C58.7015 6.75059 58.7015 6.73026 58.7015 6.05927C58.7015 5.50011 58.8438 5.33744 59.6368 5.33744C60.0333 5.33744 60.4908 5.38828 60.8772 5.47977L60.928 4.95112C60.5417 4.84945 60.0435 4.78845 59.6267 4.78845C58.427 4.78845 58.0814 5.19511 58.0814 6.03893C58.0814 7.03525 58.2237 7.26908 59.3827 7.52325C60.379 7.74691 60.379 7.80791 60.379 8.45857C60.379 9.00756 60.2163 9.21089 59.4437 9.21089C59.0065 9.21089 58.5389 9.13972 58.0915 8.99739L57.9899 9.50572C58.4067 9.66838 58.9658 9.75988 59.4233 9.75988C60.7552 9.75988 60.9992 9.28206 60.9992 8.43823C61.0093 7.50291 60.9483 7.31992 59.6572 6.99459Z" fill="white"/>
<path d="M1.17932 8.89574L1.18948 8.90591L3.74128 7.46226C3.58878 7.38093 3.45662 7.27926 3.34479 7.15726L0.579492 7.83842C0.73199 8.26542 0.945486 8.61108 1.17932 8.89574ZM3.42612 4.9613L2.80596 2.44C2.47046 2.67383 2.16547 2.91782 1.89097 3.18215L3.12112 5.35779C3.20246 5.20529 3.30412 5.07313 3.42612 4.9613ZM4.13778 4.58513L5.11376 1.18951C4.62577 1.39284 4.14794 1.62667 3.70061 1.88084L3.68028 4.7783C3.82261 4.6868 3.97511 4.61563 4.13778 4.58513ZM5.23576 4.72746C5.38826 4.8088 5.52042 4.91046 5.63225 5.03246L8.39755 4.3513C8.24505 3.93448 8.04172 3.57865 7.80789 3.29398L7.79773 3.28382L5.23576 4.72746ZM2.94829 5.87628C2.95846 5.79495 2.97879 5.71362 2.99912 5.63228L1.28098 3.84298C1.04715 4.14797 0.853988 4.4733 0.70149 4.8088L2.93813 6.13045C2.92796 6.04911 2.93813 5.96778 2.94829 5.87628ZM5.55092 7.2386L6.17108 9.75989C6.49641 9.52606 6.81157 9.28207 7.08607 9.01774L5.85592 6.8421C5.77459 6.9946 5.67292 7.12677 5.55092 7.2386ZM6.02875 6.31344C6.01858 6.39477 5.99825 6.47611 5.97792 6.55744L7.70623 8.34675C7.94006 8.04175 8.13322 7.71642 8.28572 7.38093L6.04908 6.05928C6.03892 6.14061 6.03892 6.23211 6.02875 6.31344ZM8.61105 5.81528C8.61105 5.64245 8.60088 5.46962 8.59071 5.30696L5.81525 5.28662C5.90675 5.42895 5.96775 5.58145 5.99825 5.74412L8.55005 6.47611C8.59071 6.27278 8.61105 6.04911 8.61105 5.81528ZM4.83927 7.61476L3.86328 11.0104C4.35127 10.807 4.8291 10.5732 5.27643 10.3191L5.29676 7.42159C5.15443 7.51309 5.00193 7.57409 4.83927 7.61476ZM2.96863 6.44561L0.416827 5.71362C0.376161 5.92711 0.355828 6.15078 0.355828 6.38461C0.355828 6.55744 0.365995 6.73027 0.376161 6.89294L3.15162 6.91327C3.07029 6.76077 3.00929 6.60827 2.96863 6.44561ZM4.26994 7.63509C4.18861 7.62492 4.10728 7.60459 4.02594 7.58426L0.925153 10.563L0 12.1795C0.70149 12.027 1.44365 11.844 2.1858 11.6102L4.51394 7.64526C4.44277 7.65542 4.36144 7.64526 4.26994 7.63509Z" fill="white"/>
<path d="M4.7071 4.55461C4.78843 4.56477 4.86977 4.5851 4.9511 4.60544L8.04172 1.63681L8.97704 0C8.27555 0.152498 7.5334 0.335496 6.79124 0.569326L4.4631 4.53427C4.53427 4.54444 4.6156 4.54444 4.7071 4.55461Z" fill="white"/>
</svg>
