<svg width="61" height="11" viewBox="0 0 61 11" fill="none" xmlns="http://www.w3.org/2000/svg">
<g clip-path="url(#clip0_1_234)">
<path d="M15.7485 5.08175C15.8669 5.01368 16.0444 4.97965 16.2811 4.97965C16.5178 4.97965 16.7815 5.0298 17.0397 5.13011C17.2997 5.23042 17.5346 5.40417 17.7444 5.64957L18.9352 4.44765C18.6339 4.06432 18.2448 3.77593 17.766 3.58069C17.2872 3.38544 16.7653 3.28693 16.2004 3.28693C15.6356 3.28693 15.1926 3.37828 14.7909 3.56099C14.3892 3.74369 14.079 3.99088 13.8602 4.30614C13.6414 4.61961 13.532 4.99219 13.532 5.42029C13.532 5.82153 13.6092 6.15112 13.7652 6.41085C13.9194 6.67058 14.1202 6.87299 14.3677 7.01987C14.6134 7.16496 14.8734 7.2796 15.1478 7.362C15.4222 7.44439 15.6822 7.51962 15.9279 7.58769C16.1735 7.65576 16.3762 7.73278 16.5358 7.82055C16.6954 7.90653 16.7743 8.03192 16.7743 8.19671C16.7743 8.32389 16.7079 8.4242 16.5752 8.49764C16.4425 8.57108 16.2542 8.60691 16.0068 8.60691C15.6517 8.60691 15.3235 8.54063 15.0223 8.40808C14.721 8.27553 14.461 8.09103 14.2422 7.85459L13.0514 9.05651C13.2792 9.30191 13.5554 9.51865 13.8799 9.70494C14.2045 9.89123 14.5542 10.0345 14.9344 10.1348C15.3128 10.2351 15.6983 10.2853 16.091 10.2853C16.9213 10.2853 17.5795 10.0936 18.0672 9.7121C18.555 9.32878 18.7989 8.81469 18.7989 8.16805C18.7989 7.7489 18.7218 7.41036 18.5658 7.15063C18.4097 6.8909 18.2107 6.68312 17.9632 6.52907C17.7175 6.37502 17.4575 6.25143 17.1831 6.16007C16.9088 6.06872 16.6488 5.9917 16.4031 5.92721C16.1574 5.86273 15.9565 5.79108 15.8005 5.70868C15.6445 5.62628 15.5674 5.51702 15.5674 5.38089C15.5674 5.25371 15.6266 5.15519 15.7449 5.08712L15.7485 5.08175Z" fill="white"/>
<path d="M24.7579 3.74906C24.2558 3.46604 23.6766 3.32632 23.0203 3.32632C22.3639 3.32632 21.7381 3.47679 21.2001 3.77772C20.6621 4.07864 20.2353 4.49063 19.9215 5.01367C19.6077 5.5385 19.4498 6.13141 19.4498 6.79775C19.4498 7.46409 19.6094 8.06057 19.9286 8.58719C20.2479 9.11561 20.6872 9.52759 21.2485 9.82315C21.8098 10.1187 22.45 10.2674 23.1709 10.2674C23.7268 10.2674 24.2379 10.1724 24.7023 9.98078C25.1668 9.78912 25.5649 9.50252 25.8931 9.11919L24.7436 7.97101C24.5427 8.1985 24.3096 8.37045 24.046 8.4833C23.7806 8.59794 23.4847 8.65347 23.1565 8.65347C22.8015 8.65347 22.493 8.57824 22.233 8.42777C21.973 8.27731 21.7721 8.06415 21.6305 7.78472C21.5838 7.69337 21.548 7.59306 21.5157 7.48916L26.275 7.47842C26.3109 7.30467 26.336 7.15241 26.3504 7.01986C26.3647 6.88731 26.3701 6.76192 26.3701 6.6437C26.3701 5.99706 26.2266 5.42207 25.9397 4.92232C25.6528 4.42077 25.2583 4.03028 24.7561 3.74727L24.7579 3.74906ZM22.1792 5.14981C22.4213 4.99934 22.7064 4.92411 23.0346 4.92411C23.3448 4.92411 23.6067 4.99039 23.8218 5.12294C24.0352 5.25549 24.1984 5.44715 24.3078 5.69613C24.3527 5.80003 24.3885 5.92004 24.4172 6.04722L21.5193 6.05617C21.548 5.96124 21.5803 5.86988 21.6197 5.7857C21.7524 5.51164 21.9389 5.30027 22.181 5.14981H22.1792Z" fill="white"/>
<path d="M31.9956 4.02849C31.8163 3.85654 31.61 3.71145 31.3733 3.5986C31.0129 3.42485 30.6094 3.33887 30.1629 3.33887C29.5514 3.33887 29.0062 3.48933 28.5274 3.79026C28.0486 4.09119 27.6702 4.50138 27.3923 5.02084C27.1143 5.5403 26.9744 6.1332 26.9744 6.79775C26.9744 7.4623 27.1143 8.0552 27.3923 8.57466C27.6702 9.09412 28.0486 9.50431 28.5274 9.80524C29.0062 10.1062 29.5514 10.2566 30.1629 10.2566C30.6094 10.2566 31.0165 10.1707 31.3805 9.9969C31.6172 9.88585 31.8199 9.74255 31.9956 9.57596V10.1205H34.0471V3.475H31.9956V4.02849ZM30.5861 8.36688C30.3027 8.36688 30.0481 8.29881 29.8204 8.16267C29.5926 8.02654 29.4151 7.83846 29.286 7.60202C29.1586 7.36557 29.0941 7.09689 29.0941 6.79596C29.0941 6.49503 29.1604 6.21381 29.2931 5.97557C29.4258 5.73913 29.6034 5.55463 29.8275 5.42208C30.0517 5.28953 30.3081 5.22325 30.6004 5.22325C30.8927 5.22325 31.1492 5.28953 31.3733 5.42208C31.5975 5.55463 31.7696 5.73913 31.8934 5.97557C32.0171 6.21202 32.0781 6.48607 32.0781 6.79596C32.0781 7.25093 31.9418 7.62709 31.6674 7.92265C31.3931 8.2182 31.0326 8.36688 30.5861 8.36688Z" fill="white"/>
<path d="M48.3682 3.77594C47.8212 3.47501 47.2008 3.32454 46.5068 3.32454C45.8128 3.32454 45.1941 3.4768 44.6453 3.7831C44.145 4.06254 43.7433 4.43511 43.4349 4.89367C43.3972 4.9492 43.3542 4.99577 43.3058 5.04593C42.9113 5.44 42.2728 5.44 41.8783 5.04593C41.8227 4.9904 41.7743 4.94383 41.7331 4.87755C41.4641 4.42616 41.1126 4.06074 40.6715 3.78848C40.1837 3.48755 39.6242 3.33708 38.9947 3.33708C38.5482 3.33708 38.1376 3.42306 37.7628 3.59681C37.5763 3.68279 37.4077 3.78489 37.2571 3.90312V0.718292H35.1643V10.1169H37.2302V9.62254C37.3898 9.75688 37.5655 9.87331 37.7646 9.97183C38.1393 10.1581 38.5482 10.2513 38.9965 10.2513C39.626 10.2513 40.1837 10.1008 40.6732 9.79987C41.1234 9.52223 41.4784 9.14786 41.751 8.68572C41.7887 8.6302 41.8317 8.58541 41.8801 8.53705C42.2746 8.14298 42.913 8.14298 43.3076 8.53705C43.3632 8.59258 43.4116 8.64273 43.4528 8.70722C43.7613 9.16219 44.1576 9.53298 44.6543 9.80704C45.2066 10.1133 45.8235 10.2656 46.5086 10.2656C47.1936 10.2656 47.8212 10.1133 48.37 9.80704C48.9169 9.50253 49.3509 9.08517 49.6701 8.55676C49.9893 8.02834 50.1489 7.43544 50.1489 6.77984C50.1489 6.12425 49.9893 5.53493 49.6701 5.0101C49.3509 4.48706 48.9169 4.07328 48.37 3.77415L48.3682 3.77594ZM39.9272 7.60202C39.7999 7.83847 39.6242 8.02476 39.4 8.16268C39.1759 8.29882 38.9194 8.36688 38.6271 8.36688C38.3348 8.36688 38.0784 8.30061 37.8542 8.16806C37.6301 8.0355 37.4543 7.85101 37.327 7.61456C37.1997 7.37812 37.1351 7.10406 37.1351 6.79417C37.1351 6.48429 37.1961 6.21202 37.3198 5.97379C37.4436 5.73734 37.6193 5.55285 37.847 5.42029C38.0748 5.28774 38.3348 5.22147 38.6271 5.22147C38.9194 5.22147 39.1759 5.28774 39.4 5.42029C39.6242 5.55285 39.7981 5.73734 39.9272 5.97379C40.0546 6.21023 40.1191 6.48429 40.1191 6.79417C40.1191 7.10406 40.0546 7.36379 39.9272 7.60023V7.60202ZM47.8284 7.60919C47.7047 7.85101 47.5289 8.03729 47.3012 8.16985C47.0734 8.3024 46.808 8.36867 46.5086 8.36867C46.2091 8.36867 45.9562 8.3024 45.7285 8.16985C45.5007 8.03729 45.3232 7.85101 45.1941 7.60919C45.0668 7.36737 45.0022 7.09689 45.0022 6.79597C45.0022 6.49504 45.0668 6.21381 45.1941 5.97558C45.3214 5.73914 45.4989 5.55464 45.7285 5.42209C45.9562 5.28953 46.2163 5.22326 46.5086 5.22326C46.8009 5.22326 47.0716 5.28953 47.2958 5.42209C47.52 5.55464 47.6939 5.73555 47.823 5.96841C47.9503 6.20127 48.0149 6.47175 48.0149 6.78164C48.0149 7.09152 47.9539 7.36737 47.8302 7.60919H47.8284Z" fill="white"/>
<path d="M57.8116 5.08175C57.9299 5.01368 58.1074 4.97965 58.3442 4.97965C58.5809 4.97965 58.8445 5.0298 59.1027 5.13011C59.3627 5.23042 59.5977 5.40417 59.8075 5.64957L60.9982 4.44765C60.6969 4.06432 60.3078 3.77593 59.829 3.58069C59.3502 3.38544 58.8283 3.28693 58.2635 3.28693C57.6986 3.28693 57.2556 3.37828 56.8539 3.56099C56.4523 3.74369 56.142 3.99088 55.9232 4.30614C55.7045 4.61961 55.5951 4.99219 55.5951 5.42029C55.5951 5.82153 55.6722 6.15112 55.8282 6.41085C55.9824 6.67058 56.1833 6.87299 56.4307 7.01987C56.6764 7.16496 56.9364 7.2796 57.2108 7.362C57.4852 7.44439 57.7452 7.51962 57.9909 7.58769C58.2366 7.65576 58.4392 7.73278 58.5988 7.82055C58.7584 7.90653 58.8373 8.03192 58.8373 8.19671C58.8373 8.32389 58.771 8.4242 58.6383 8.49764C58.5056 8.57108 58.3173 8.60691 58.0698 8.60691C57.7147 8.60691 57.3865 8.54063 57.0853 8.40808C56.784 8.27553 56.524 8.09103 56.3052 7.85459L55.1145 9.05651C55.3422 9.30191 55.6184 9.51865 55.943 9.70494C56.2675 9.89123 56.6172 10.0345 56.9956 10.1348C57.374 10.2351 57.7596 10.2853 58.1523 10.2853C58.9826 10.2853 59.6407 10.0936 60.1285 9.7121C60.6162 9.32878 60.8601 8.81469 60.8601 8.16805C60.8601 7.7489 60.783 7.41036 60.627 7.15063C60.471 6.8909 60.2719 6.68312 60.0245 6.52907C59.7788 6.37502 59.5188 6.25143 59.2444 6.16007C58.97 6.06872 58.71 5.9917 58.4643 5.92721C58.2186 5.86273 58.0178 5.79108 57.8618 5.70868C57.7058 5.62628 57.6286 5.51702 57.6286 5.38089C57.6286 5.25371 57.6878 5.15519 57.8062 5.08712L57.8116 5.08175Z" fill="white"/>
<path d="M53.2638 5.20894V7.67368C53.2638 8.27016 53.4593 8.58184 54.069 8.58184C54.277 8.58184 54.537 8.54243 54.6931 8.47795L54.72 10.0345C54.4348 10.1384 53.9417 10.2298 53.4862 10.2298C51.7593 10.2298 51.1872 9.30908 51.1872 7.93341V5.20894H50.1489V3.61294H51.1746V1.91306H53.2656V3.61294H54.7845V5.20894H53.2656H53.2638Z" fill="white"/>
<path d="M1.47586 2.94837C1.88652 2.94837 2.26132 2.77999 2.52852 2.50773C2.79033 2.2462 3.13823 2.10291 3.50764 2.10291C3.87706 2.10291 4.22495 2.2462 4.48677 2.50773C4.75397 2.77999 5.12697 2.94837 5.53942 2.94837C6.35357 2.94837 7.01529 2.2874 7.01529 1.47418C7.01529 0.660958 6.35357 -9.29809e-06 5.54122 -9.29809e-06C5.13056 -9.29809e-06 4.75576 0.168367 4.48856 0.440636C3.94879 0.979798 3.06829 0.979798 2.52852 0.440636C2.26132 0.168367 1.88832 -0.00180054 1.47586 -0.00180054C0.661718 -9.29809e-06 0 0.660958 0 1.47418C0 2.2874 0.661718 2.94837 1.47586 2.94837Z" fill="white"/>
<path d="M1.47586 6.9715C1.88652 6.9715 2.26132 6.80313 2.52852 6.53086C2.79033 6.26934 3.13823 6.12604 3.50764 6.12604C3.87706 6.12604 4.22495 6.26934 4.48677 6.53086C4.75397 6.80313 5.12697 6.9715 5.53942 6.9715C6.35357 6.9715 7.01529 6.31054 7.01529 5.49731C7.01529 4.68409 6.35357 4.02312 5.53942 4.02312C5.12876 4.02312 4.75397 4.1915 4.48677 4.46377C3.947 5.00293 3.0665 5.00293 2.52672 4.46377C2.25953 4.1915 1.88652 4.02133 1.47407 4.02133C0.659925 4.02133 -0.00179291 4.6823 -0.00179291 5.49552C-0.00179291 6.30874 0.659925 6.96971 1.47407 6.96971L1.47586 6.9715Z" fill="white"/>
<path d="M9.60477 4.0249C8.79063 4.0249 8.12891 4.68587 8.12891 5.49909C8.12891 5.90033 8.2921 6.26574 8.55392 6.53085C8.81573 6.79237 8.9592 7.14166 8.9592 7.51065C8.9592 7.88144 8.81573 8.22894 8.55392 8.48867C8.2921 8.7484 7.9442 8.89349 7.57479 8.89349C7.20537 8.89349 6.85568 8.75019 6.59566 8.48867C6.32846 8.2164 5.95367 8.04982 5.54301 8.04982C5.13235 8.04982 4.75756 8.2164 4.49036 8.48867C4.22854 8.75019 3.88064 8.89349 3.51123 8.89349C3.14181 8.89349 2.79392 8.75019 2.5321 8.48867C2.2649 8.2164 1.89011 8.04982 1.47945 8.04982C0.665304 8.04982 0.00358582 8.71078 0.00358582 9.52401C0.00358582 10.3372 0.665304 10.9982 1.47945 10.9982C1.89011 10.9982 2.2649 10.8298 2.5321 10.5576C3.07188 10.0184 3.95237 10.0184 4.49215 10.5576C4.75935 10.8298 5.13235 10.9982 5.5448 10.9982C5.95725 10.9982 6.32846 10.8298 6.59745 10.5576C7.13723 10.0184 8.01773 10.0184 8.5575 10.5576C8.8247 10.8298 9.1977 10.9982 9.61015 10.9982C10.4243 10.9982 11.086 10.3372 11.086 9.52401C11.086 9.12098 10.9228 8.75557 10.6592 8.49046C10.1194 7.9513 10.1194 7.0718 10.6592 6.53264C10.9228 6.26574 11.086 5.90212 11.086 5.49909C11.086 4.68587 10.4243 4.0249 9.61015 4.0249H9.60477Z" fill="white"/>
<path d="M9.60477 2.95017C10.4189 2.95017 11.0806 2.2892 11.0806 1.47598C11.0806 0.662758 10.4189 0 9.60477 0C8.79062 0 8.12891 0.660967 8.12891 1.47419C8.12891 2.28741 8.79062 2.94838 9.60477 2.94838V2.95017Z" fill="white"/>
</g>
<defs>
<clipPath id="clip0_1_234">
<rect width="61" height="11" fill="white"/>
</clipPath>
</defs>
</svg>
