<svg width="1245" height="132" viewBox="0 0 1245 132" fill="none" xmlns="http://www.w3.org/2000/svg">
<g filter="url(#filter0_b_3_24)">
<path d="M91.5363 0H107.319C109.479 0 110.642 1.31999 110.475 3.465L96.188 128.865C96.0219 131.01 94.859 132 92.6992 132H76.4182C74.4246 132 73.2616 131.01 72.7632 129.03L55.4854 54.45L38.0414 129.195C37.5429 131.01 36.38 132 34.3864 132H17.7731C15.6133 132 14.4504 131.01 14.2843 128.865L0.661348 3.465C0.495215 1.31999 1.65815 0 3.81788 0H19.6005C21.5941 0 22.9232 1.155 23.0893 3.135L29.5685 80.355H30.3992L46.8464 2.96999C47.3448 0.989997 48.5078 0 50.5014 0H60.4694C62.463 0 63.6259 0.989997 64.1243 2.96999L80.4054 80.355H81.236L88.0475 3.135C88.2136 1.155 89.5427 0 91.5363 0ZM195.479 132H177.869C176.374 132 175.543 131.175 175.211 129.69L170.559 105.6H140.988L136.503 129.69C136.17 131.175 135.34 132 133.844 132H116.068C114.241 132 113.41 131.01 113.908 129.195L141.487 2.31C141.819 0.659992 142.816 0 144.311 0H167.403C168.898 0 169.895 0.659992 170.227 2.31L197.805 129.195C198.137 131.01 197.473 132 195.479 132ZM166.406 86.46L155.774 28.875L145.142 86.46H166.406ZM233.303 0H251.91C267.526 0 275.833 8.24998 275.833 23.76V41.25C275.833 42.9 275.002 43.89 273.175 43.89H255.897C254.236 43.89 253.239 42.9 253.239 41.25V28.38C253.239 24.09 251.079 21.78 246.594 21.78H238.619C234.466 21.78 231.974 24.09 231.974 28.38V51.15L271.514 64.02C274.338 65.175 275.833 66.99 275.833 70.125V108.24C275.833 123.75 267.526 132 251.91 132H233.303C217.852 132 209.38 123.75 209.38 108.24V90.915C209.38 89.1 210.376 88.275 212.038 88.275H229.316C231.143 88.275 231.974 89.1 231.974 90.915V103.62C231.974 108.075 234.466 110.22 238.619 110.22H246.594C250.913 110.22 253.239 108.075 253.239 103.62V81.675L213.865 68.805C210.875 67.815 209.38 65.835 209.38 62.7V23.76C209.38 8.24998 217.852 0 233.303 0ZM318.031 0H336.638C352.254 0 360.561 8.24998 360.561 23.76V41.25C360.561 42.9 359.73 43.89 357.903 43.89H340.625C338.964 43.89 337.967 42.9 337.967 41.25V28.38C337.967 24.09 335.807 21.78 331.322 21.78H323.347C319.194 21.78 316.702 24.09 316.702 28.38V51.15L356.242 64.02C359.066 65.175 360.561 66.99 360.561 70.125V108.24C360.561 123.75 352.254 132 336.638 132H318.031C302.58 132 294.108 123.75 294.108 108.24V90.915C294.108 89.1 295.104 88.275 296.766 88.275H314.044C315.871 88.275 316.702 89.1 316.702 90.915V103.62C316.702 108.075 319.194 110.22 323.347 110.22H331.322C335.641 110.22 337.967 108.075 337.967 103.62V81.675L298.593 68.805C295.603 67.815 294.108 65.835 294.108 62.7V23.76C294.108 8.24998 302.58 0 318.031 0ZM378.836 129.36V2.64C378.836 0.989997 379.832 0 381.494 0H421.366C436.982 0 445.289 8.24998 445.289 23.76V64.02C445.289 79.365 436.982 87.78 421.366 87.78H401.43V129.36C401.43 131.01 400.599 132 398.772 132H381.494C379.832 132 378.836 131.01 378.836 129.36ZM401.43 66H416.05C420.535 66 422.695 63.525 422.695 59.4V28.38C422.695 24.09 420.535 21.78 416.05 21.78H401.43V66ZM576.202 0H598.132C600.291 0 601.454 1.155 601.454 3.3V128.7C601.454 130.845 600.291 132 598.132 132H582.681C580.522 132 579.359 130.845 579.359 128.7V54.45H578.196L561.748 129.03C561.25 131.01 560.087 132 558.094 132H549.953C547.959 132 546.797 131.01 546.298 129.03L529.851 54.45H528.688V128.7C528.688 130.845 527.525 132 525.365 132H510.081C507.921 132 506.758 130.845 506.758 128.7V3.3C506.758 1.155 507.921 0 510.081 0H532.011C534.004 0 535.167 0.989997 535.666 2.96999L554.106 85.14L572.547 2.96999C573.046 0.989997 574.208 0 576.202 0ZM667.562 0H682.846C684.674 0 686.169 1.485 686.169 3.3V108.24C686.169 123.75 677.862 132 662.246 132H643.639C628.022 132 619.716 123.75 619.716 108.24V3.3C619.716 1.485 621.211 0 623.038 0H638.987C640.815 0 642.31 1.485 642.31 3.3V103.62C642.31 108.075 644.636 110.22 648.955 110.22H657.594C661.914 110.22 664.239 108.075 664.239 103.62V3.3C664.239 1.485 665.735 0 667.562 0ZM727.038 110.22H766.578C768.405 110.22 769.236 111.21 769.236 112.86V129.36C769.236 131.175 768.405 132 766.578 132H707.102C705.441 132 704.444 131.175 704.444 129.36V2.64C704.444 0.989997 705.441 0 707.102 0H724.38C726.207 0 727.038 0.989997 727.038 2.64V110.22ZM770.337 0H831.474C833.302 0 834.132 0.989997 834.132 2.64V19.14C834.132 20.79 833.302 21.78 831.474 21.78H812.203V129.36C812.203 131.175 811.372 132 809.545 132H792.267C790.605 132 789.609 131.175 789.609 129.36V21.78H770.337C768.676 21.78 767.679 20.79 767.679 19.14V2.64C767.679 0.989997 768.676 0 770.337 0ZM851.736 0H869.014C870.675 0 871.672 0.989997 871.672 2.64V129.36C871.672 131.01 870.675 132 869.014 132H851.736C849.908 132 849.078 131.01 849.078 129.36V2.64C849.078 0.989997 849.908 0 851.736 0ZM956.619 23.76V54.12C956.619 60.225 952.134 64.845 946.153 65.835V66.165C952.134 67.155 956.619 71.775 956.619 77.88V108.24C956.619 123.75 948.146 132 932.53 132H892.658C890.997 132 890 131.01 890 129.36V2.64C890 0.824999 890.997 0 892.658 0H932.53C948.146 0 956.619 8.24998 956.619 23.76ZM934.523 48.675V28.38C934.523 24.09 932.364 21.78 927.878 21.78H912.76V55.11H927.878C932.198 55.11 934.523 52.8 934.523 48.675ZM934.523 103.62V83.49C934.523 79.2 932.364 76.89 927.878 76.89H912.76V110.22H927.878C932.198 110.22 934.523 108.075 934.523 103.62ZM1041.18 2.64V19.14C1041.18 20.79 1040.51 21.945 1038.52 21.945H996.986V54.945H1028.72C1030.38 54.945 1031.38 55.935 1031.38 57.75V74.085C1031.38 75.9 1030.38 76.89 1028.72 76.89H996.986V110.22H1038.52C1040.51 110.22 1041.18 111.045 1041.18 112.86V129.36C1041.18 131.01 1040.51 132 1038.52 132H977.383C975.887 132 974.891 131.01 974.891 129.36V2.64C974.891 0.989997 975.887 0 977.383 0H1038.52C1040.51 0 1041.18 0.989997 1041.18 2.64ZM1134.5 132H1116.89C1115.4 132 1114.57 131.175 1114.23 129.69L1109.58 105.6H1080.01L1075.53 129.69C1075.19 131.175 1074.36 132 1072.87 132H1055.09C1053.26 132 1052.43 131.01 1052.93 129.195L1080.51 2.31C1080.84 0.659992 1081.84 0 1083.33 0H1106.43C1107.92 0 1108.92 0.659992 1109.25 2.31L1136.83 129.195C1137.16 131.01 1136.5 132 1134.5 132ZM1105.43 86.46L1094.8 28.875L1084.16 86.46H1105.43ZM1219.63 0H1241.56C1243.72 0 1244.88 1.155 1244.88 3.3V128.7C1244.88 130.845 1243.72 132 1241.56 132H1226.11C1223.95 132 1222.79 130.845 1222.79 128.7V54.45H1221.63L1205.18 129.03C1204.68 131.01 1203.52 132 1201.52 132H1193.38C1191.39 132 1190.23 131.01 1189.73 129.03L1173.28 54.45H1172.12V128.7C1172.12 130.845 1170.95 132 1168.79 132H1153.51C1151.35 132 1150.19 130.845 1150.19 128.7V3.3C1150.19 1.155 1151.35 0 1153.51 0H1175.44C1177.43 0 1178.6 0.989997 1179.1 2.96999L1197.54 85.14L1215.98 2.96999C1216.48 0.989997 1217.64 0 1219.63 0Z" fill="white"/>
</g>
<defs>
<filter id="filter0_b_3_24" x="-9.35431" y="-10" width="1264.24" height="152" filterUnits="userSpaceOnUse" color-interpolation-filters="sRGB">
<feFlood flood-opacity="0" result="BackgroundImageFix"/>
<feGaussianBlur in="BackgroundImageFix" stdDeviation="5"/>
<feComposite in2="SourceAlpha" operator="in" result="effect1_backgroundBlur_3_24"/>
<feBlend mode="normal" in="SourceGraphic" in2="effect1_backgroundBlur_3_24" result="shape"/>
</filter>
</defs>
</svg>
